0
SECTION
2
HEADER
9
$ACADVER
1
AC1015
0
ENDSEC
0
SECTION
2
ENTITIES
0
CIRCLE
8
Enclosure_Body_Outer
10
0.0
20
0.0
40
127.0
0
CIRCLE
8
Enclosure_Body_Inner
10
0.0
20
0.0
40
123.8
0
CIRCLE
8
Top_Cap
10
0.0
20
0.0
40
127.0
0
CIRCLE
8
Bottom_Plate
10
0.0
20
0.0
40
127.0
0
CIRCLE
8
Collector_Plate_Outer
10
0.0
20
0.0
40
127.0
0
CIRCLE
8
Collector_Plate_Window
10
0.0
20
0.0
40
76.2
0
CIRCLE
8
Ground_Plane
10
0.0
20
0.0
40
120.65
0
CIRCLE
8
Acrylic_Window
10
0.0
20
0.0
40
76.2
0
CIRCLE
8
Shelf_Lower
10
0.0
20
0.0
40
114.3
0
CIRCLE
8
Shelf_Upper
10
0.0
20
0.0
40
114.3
0
LINE
8
Collector_Spoke_1
10
0.0
20
-76.0
11
0.0
21
76.0
0
LINE
8
Collector_Spoke_2
10
-53.74
20
-53.74
11
53.74
21
53.74
0
LINE
8
Collector_Spoke_3
10
-76.0
20
0.0
11
76.0
21
0.0
0
LINE
8
Collector_Spoke_4
10
-53.74
20
53.74
11
53.74
21
-53.74
0
CIRCLE
8
Standoff_Hole_1
10
82.27
20
47.5
40
2.0
0
CIRCLE
8
Standoff_Hole_2
10
0.0
20
95.0
40
2.0
0
CIRCLE
8
Standoff_Hole_3
10
-82.27
20
47.5
40
2.0
0
CIRCLE
8
Standoff_Hole_4
10
-82.27
20
-47.5
40
2.0
0
CIRCLE
8
Standoff_Hole_5
10
0.0
20
-95.0
40
2.0
0
CIRCLE
8
Standoff_Hole_6
10
82.27
20
-47.5
40
2.0
0
LWPOLYLINE
8
Front_Panel
90
4
70
1
10
-40.0
20
-25.0
10
40.0
20
-25.0
10
40.0
20
25.0
10
-40.0
20
25.0
0
CIRCLE
8
LED_Hole_Green
10
-22.0
20
13.0
40
2.6
0
CIRCLE
8
LED_Hole_Blue
10
-10.0
20
13.0
40
2.6
0
CIRCLE
8
LED_Hole_Orange
10
2.0
20
13.0
40
2.6
0
LWPOLYLINE
8
OLED_Cutout
90
4
70
1
10
-22.5
20
-2.0
10
2.5
20
-2.0
10
2.5
20
5.0
10
-22.5
20
5.0
0
LWPOLYLINE
8
USB_C_Cutout
90
4
70
1
10
10.0
20
-15.0
10
19.0
20
-15.0
10
19.0
20
-11.5
10
10.0
20
-11.5
0
LWPOLYLINE
8
USB_A_1_Cutout
90
4
70
1
10
10.0
20
-5.0
10
23.0
20
-5.0
10
23.0
20
0.5
10
10.0
20
0.5
0
LWPOLYLINE
8
USB_A_2_Cutout
90
4
70
1
10
10.0
20
3.0
10
23.0
20
3.0
10
23.0
20
8.5
10
10.0
20
8.5
0
ENDSEC
0
EOF
