; ADPS-100 Power Board - Drill File
; Excellon Format
M48
INCH
T1C0.032
T2C0.040
T3C0.052
%

T1
X004000Y004700
X004000Y006700
X004000Y008700
X004000Y010700
X004000Y012700
X004000Y014700
X004000Y016700
X004000Y018700
X008000Y004700
X008000Y006700
X008000Y008700
X008000Y010700

T2
X010000Y004700
X010000Y008700
X010000Y012700
X010000Y016700
X012000Y004700
X012000Y008700

T3
X020000Y005900
X020000Y011800
X020000Y017700
X024000Y005900
X002000Y002000
X002000Y004000
X029500Y002000
X029500Y004000

M30
